<mxfile host="drawio-plugin" agent="Mozilla/5.0 (Windows NT 10.0; Win64; x64) AppleWebKit/537.36 (KHTML, like Gecko) Chrome/122.0.0.0 Safari/537.36" modified="2025-01-05T15:34:34.633Z" etag="rsJurdcYSMjDo6Kg1-q1" version="22.1.22" type="embed">
  <diagram name="Page-1" id="5f0bae14-7c28-e335-631c-24af17079c00">
    <mxGraphModel dx="1663" dy="1272" grid="1" gridSize="10" guides="1" tooltips="1" connect="1" arrows="1" fold="1" page="1" pageScale="1" pageWidth="1100" pageHeight="850" background="none" math="0" shadow="0">
      <root>
        <mxCell id="0" />
        <mxCell id="1" parent="0" />
        <mxCell id="8" value="&amp;lt;&amp;lt;container&amp;gt;&amp;gt;&lt;br style=&quot;border-color: var(--border-color);&quot;&gt;Server-Side Web Application (ASP.NET)&lt;br style=&quot;border-color: var(--border-color);&quot;&gt;&lt;br style=&quot;border-color: var(--border-color);&quot;&gt;&lt;br style=&quot;border-color: var(--border-color);&quot;&gt;&lt;br style=&quot;border-color: var(--border-color);&quot;&gt;&lt;br&gt;&lt;br&gt;&lt;br&gt;&lt;br&gt;&lt;br&gt;&lt;br style=&quot;border-color: var(--border-color);&quot;&gt;" style="shape=cube;whiteSpace=wrap;html=1;boundedLbl=1;backgroundOutline=1;darkOpacity=0.05;darkOpacity2=0.1;size=10;direction=south;" parent="1" vertex="1">
          <mxGeometry x="835" y="305" width="290" height="210" as="geometry" />
        </mxCell>
        <mxCell id="9" value="&amp;lt;&amp;lt;container&amp;gt;&amp;gt;&lt;br style=&quot;border-color: var(--border-color);&quot;&gt;Server-Side Web Application (Node.js)&lt;br style=&quot;border-color: var(--border-color);&quot;&gt;&lt;br style=&quot;border-color: var(--border-color);&quot;&gt;&lt;br style=&quot;border-color: var(--border-color);&quot;&gt;&lt;br style=&quot;border-color: var(--border-color);&quot;&gt;&lt;br&gt;&lt;br&gt;&lt;br&gt;&lt;br style=&quot;border-color: var(--border-color);&quot;&gt;" style="shape=cube;whiteSpace=wrap;html=1;boundedLbl=1;backgroundOutline=1;darkOpacity=0.05;darkOpacity2=0.1;size=10;direction=south;" parent="1" vertex="1">
          <mxGeometry x="455" y="260" width="300" height="200" as="geometry" />
        </mxCell>
        <mxCell id="10" value="&amp;lt;&amp;lt;container&amp;gt;&amp;gt;&lt;br style=&quot;border-color: var(--border-color);&quot;&gt;Client Side Web Application (FE)&lt;br style=&quot;border-color: var(--border-color);&quot;&gt;&lt;br style=&quot;border-color: var(--border-color);&quot;&gt;&lt;br style=&quot;border-color: var(--border-color);&quot;&gt;&lt;br&gt;&lt;br&gt;&lt;br&gt;&lt;br&gt;&lt;br style=&quot;border-color: var(--border-color);&quot;&gt;&lt;br style=&quot;border-color: var(--border-color);&quot;&gt;" style="shape=cube;whiteSpace=wrap;html=1;boundedLbl=1;backgroundOutline=1;darkOpacity=0.05;darkOpacity2=0.1;size=10;direction=south;" parent="1" vertex="1">
          <mxGeometry x="1020" y="-60" width="300" height="220" as="geometry" />
        </mxCell>
        <mxCell id="11" value="&amp;lt;&amp;lt;container&amp;gt;&amp;gt;&lt;br style=&quot;border-color: var(--border-color);&quot;&gt;Server-Side Web Application (PROLOG)&lt;br style=&quot;border-color: var(--border-color);&quot;&gt;&lt;br style=&quot;border-color: var(--border-color);&quot;&gt;&lt;br style=&quot;border-color: var(--border-color);&quot;&gt;&lt;br&gt;&lt;br&gt;&lt;br&gt;&lt;br&gt;&lt;br&gt;&lt;br&gt;&lt;br&gt;&lt;br&gt;&lt;br&gt;&lt;br style=&quot;border-color: var(--border-color);&quot;&gt;" style="shape=cube;whiteSpace=wrap;html=1;boundedLbl=1;backgroundOutline=1;darkOpacity=0.05;darkOpacity2=0.1;size=10;direction=south;" parent="1" vertex="1">
          <mxGeometry x="60" y="305" width="290" height="240" as="geometry" />
        </mxCell>
        <mxCell id="12" value="&lt;br&gt;SARM&lt;br&gt;&lt;br&gt;&lt;br&gt;&lt;br&gt;&lt;br&gt;&lt;br&gt;&lt;br&gt;&lt;br&gt;&lt;br&gt;&lt;br&gt;&lt;br&gt;&lt;br&gt;&lt;br&gt;&lt;br&gt;&lt;br&gt;&lt;br&gt;&lt;br&gt;&lt;br&gt;&lt;br&gt;&lt;br&gt;&lt;br&gt;&lt;br&gt;&lt;br&gt;&lt;br&gt;&lt;br&gt;&lt;br&gt;&lt;br&gt;&lt;br&gt;&lt;br&gt;&lt;br&gt;&lt;br&gt;" style="rounded=0;whiteSpace=wrap;html=1;" parent="1" vertex="1">
          <mxGeometry x="240" y="-270" width="650" height="480" as="geometry" />
        </mxCell>
        <mxCell id="13" value="&amp;lt;&amp;lt;container&amp;gt;&amp;gt;&lt;br style=&quot;border-color: var(--border-color);&quot;&gt;Database (SQL Server)&lt;br style=&quot;border-color: var(--border-color);&quot;&gt;&lt;br style=&quot;border-color: var(--border-color);&quot;&gt;&lt;br style=&quot;border-color: var(--border-color);&quot;&gt;&lt;br style=&quot;border-color: var(--border-color);&quot;&gt;&lt;br style=&quot;border-color: var(--border-color);&quot;&gt;" style="shape=cube;whiteSpace=wrap;html=1;boundedLbl=1;backgroundOutline=1;darkOpacity=0.05;darkOpacity2=0.1;size=10;direction=south;" parent="1" vertex="1">
          <mxGeometry x="-180" y="50" width="350" height="180" as="geometry" />
        </mxCell>
        <mxCell id="14" value="&amp;lt;&amp;lt;container&amp;gt;&amp;gt;&lt;br style=&quot;border-color: var(--border-color);&quot;&gt;Database (MongoDB)&lt;br style=&quot;border-color: var(--border-color);&quot;&gt;&lt;br style=&quot;border-color: var(--border-color);&quot;&gt;&lt;br style=&quot;border-color: var(--border-color);&quot;&gt;&lt;br style=&quot;border-color: var(--border-color);&quot;&gt;" style="shape=cube;whiteSpace=wrap;html=1;boundedLbl=1;backgroundOutline=1;darkOpacity=0.05;darkOpacity2=0.1;size=10;direction=south;" parent="1" vertex="1">
          <mxGeometry x="-200" y="-170" width="360" height="180" as="geometry" />
        </mxCell>
        <mxCell id="15" value="Planning Module&lt;br&gt;" style="rounded=0;whiteSpace=wrap;html=1;" parent="1" vertex="1">
          <mxGeometry x="300" y="100" width="200" height="40" as="geometry" />
        </mxCell>
        <mxCell id="17" value="Backoffice Web App" style="rounded=0;whiteSpace=wrap;html=1;" parent="1" vertex="1">
          <mxGeometry x="290" y="-160" width="240" height="80" as="geometry" />
        </mxCell>
        <mxCell id="18" value="3D Visualization Module" style="rounded=0;whiteSpace=wrap;html=1;" parent="1" vertex="1">
          <mxGeometry x="710" y="-80" width="130" height="60" as="geometry" />
        </mxCell>
        <mxCell id="19" value="" style="shape=providedRequiredInterface;html=1;verticalLabelPosition=bottom;sketch=0;rotation=-90;" parent="1" vertex="1">
          <mxGeometry x="385" width="30" height="30" as="geometry" />
        </mxCell>
        <mxCell id="24" value="FrontEnd" style="rounded=0;whiteSpace=wrap;html=1;" parent="1" vertex="1">
          <mxGeometry x="690" y="-180" width="130" height="40" as="geometry" />
        </mxCell>
        <mxCell id="27" value="" style="whiteSpace=wrap;html=1;aspect=fixed;" parent="1" vertex="1">
          <mxGeometry x="755" y="-280" width="20" height="20" as="geometry" />
        </mxCell>
        <mxCell id="28" value="" style="whiteSpace=wrap;html=1;aspect=fixed;" parent="1" vertex="1">
          <mxGeometry x="390" y="90" width="20" height="20" as="geometry" />
        </mxCell>
        <mxCell id="29" value="" style="whiteSpace=wrap;html=1;aspect=fixed;" parent="1" vertex="1">
          <mxGeometry x="390" y="-90" width="20" height="20" as="geometry" />
        </mxCell>
        <mxCell id="30" value="" style="whiteSpace=wrap;html=1;aspect=fixed;" parent="1" vertex="1">
          <mxGeometry x="310" y="-90" width="20" height="20" as="geometry" />
        </mxCell>
        <mxCell id="31" value="" style="whiteSpace=wrap;html=1;aspect=fixed;" parent="1" vertex="1">
          <mxGeometry x="280" y="-130" width="20" height="20" as="geometry" />
        </mxCell>
        <mxCell id="32" value="Planning Module&lt;br&gt;" style="rounded=0;whiteSpace=wrap;html=1;" parent="1" vertex="1">
          <mxGeometry x="160" y="470" width="105" height="40" as="geometry" />
        </mxCell>
        <mxCell id="33" value="WebServer" style="rounded=0;whiteSpace=wrap;html=1;" parent="1" vertex="1">
          <mxGeometry x="995" y="450" width="105" height="40" as="geometry" />
        </mxCell>
        <mxCell id="36" value="" style="image;aspect=fixed;perimeter=ellipsePerimeter;html=1;align=center;shadow=0;dashed=0;spacingTop=3;image=img/lib/active_directory/databases.svg;" parent="1" vertex="1">
          <mxGeometry x="-160" y="150" width="61.22" height="60" as="geometry" />
        </mxCell>
        <mxCell id="37" value="" style="image;aspect=fixed;perimeter=ellipsePerimeter;html=1;align=center;shadow=0;dashed=0;spacingTop=3;image=img/lib/active_directory/databases.svg;" parent="1" vertex="1">
          <mxGeometry x="-180" y="-70" width="61.22" height="60" as="geometry" />
        </mxCell>
        <mxCell id="38" value="WebServer" style="rounded=0;whiteSpace=wrap;html=1;" parent="1" vertex="1">
          <mxGeometry x="480" y="350" width="105" height="40" as="geometry" />
        </mxCell>
        <mxCell id="39" value="https://vs550.dei.isep.ipp.pt:7252" style="rounded=0;whiteSpace=wrap;html=1;" parent="1" vertex="1">
          <mxGeometry x="870" y="400" width="190" height="40" as="geometry" />
        </mxCell>
        <mxCell id="40" value="https://vs211.dei.isep.ipp.pt:3000" style="rounded=0;whiteSpace=wrap;html=1;" parent="1" vertex="1">
          <mxGeometry x="520" y="405" width="190" height="40" as="geometry" />
        </mxCell>
        <mxCell id="41" value="vs-gate-s1.dei.isep.ipp.pt:11435" style="rounded=0;whiteSpace=wrap;html=1;" parent="1" vertex="1">
          <mxGeometry x="-60" y="170" width="190" height="40" as="geometry" />
        </mxCell>
        <mxCell id="42" value="mongoadmin@vs429.dei.isep.ipp.pt:27017" style="rounded=0;whiteSpace=wrap;html=1;" parent="1" vertex="1">
          <mxGeometry x="-98.78" y="-50" width="240" height="40" as="geometry" />
        </mxCell>
        <mxCell id="43" value="Web Client" style="rounded=0;whiteSpace=wrap;html=1;" parent="1" vertex="1">
          <mxGeometry x="1100" y="80" width="120" height="40" as="geometry" />
        </mxCell>
        <mxCell id="44" value="http://localhost:4000" style="rounded=0;whiteSpace=wrap;html=1;" parent="1" vertex="1">
          <mxGeometry x="1050" y="35" width="160" height="30" as="geometry" />
        </mxCell>
        <mxCell id="45" value="http://localhost:5000" style="rounded=0;whiteSpace=wrap;html=1;" parent="1" vertex="1">
          <mxGeometry x="90" y="410" width="160" height="30" as="geometry" />
        </mxCell>
        <mxCell id="46" value="" style="endArrow=none;html=1;rounded=0;exitX=0;exitY=0;exitDx=0;exitDy=140;exitPerimeter=0;entryX=0.25;entryY=1;entryDx=0;entryDy=0;" parent="1" source="11" target="15" edge="1">
          <mxGeometry width="50" height="50" relative="1" as="geometry">
            <mxPoint x="370" y="320" as="sourcePoint" />
            <mxPoint x="420" y="270" as="targetPoint" />
          </mxGeometry>
        </mxCell>
        <mxCell id="47" value="" style="endArrow=none;html=1;rounded=0;exitX=0.166;exitY=-0.005;exitDx=0;exitDy=0;exitPerimeter=0;entryX=0.5;entryY=1;entryDx=0;entryDy=0;" parent="1" source="13" target="30" edge="1">
          <mxGeometry width="50" height="50" relative="1" as="geometry">
            <mxPoint x="180" y="155" as="sourcePoint" />
            <mxPoint x="320" y="-10" as="targetPoint" />
          </mxGeometry>
        </mxCell>
        <mxCell id="49" value="" style="endArrow=none;html=1;rounded=0;exitX=0.311;exitY=-0.003;exitDx=0;exitDy=0;exitPerimeter=0;entryX=0;entryY=0.75;entryDx=0;entryDy=0;" parent="1" source="14" target="31" edge="1">
          <mxGeometry width="50" height="50" relative="1" as="geometry">
            <mxPoint x="102" y="45" as="sourcePoint" />
            <mxPoint x="250" y="-105" as="targetPoint" />
          </mxGeometry>
        </mxCell>
        <mxCell id="50" value="" style="endArrow=none;html=1;rounded=0;exitX=0;exitY=0.5;exitDx=0;exitDy=0;exitPerimeter=0;entryX=0.5;entryY=0;entryDx=0;entryDy=0;" parent="1" source="19" target="28" edge="1">
          <mxGeometry width="50" height="50" relative="1" as="geometry">
            <mxPoint x="220" y="315" as="sourcePoint" />
            <mxPoint x="360" y="150" as="targetPoint" />
          </mxGeometry>
        </mxCell>
        <mxCell id="51" value="" style="endArrow=none;html=1;rounded=0;exitX=1;exitY=0.5;exitDx=0;exitDy=0;exitPerimeter=0;entryX=0.5;entryY=1;entryDx=0;entryDy=0;" parent="1" source="19" target="29" edge="1">
          <mxGeometry width="50" height="50" relative="1" as="geometry">
            <mxPoint x="405" y="35" as="sourcePoint" />
            <mxPoint x="405" y="100" as="targetPoint" />
          </mxGeometry>
        </mxCell>
        <mxCell id="52" value="" style="endArrow=none;html=1;rounded=0;entryX=-0.019;entryY=0.619;entryDx=0;entryDy=0;entryPerimeter=0;exitX=0.904;exitY=1.013;exitDx=0;exitDy=0;exitPerimeter=0;" parent="1" source="53" target="9" edge="1">
          <mxGeometry width="50" height="50" relative="1" as="geometry">
            <mxPoint x="220" y="315" as="sourcePoint" />
            <mxPoint x="360" y="150" as="targetPoint" />
          </mxGeometry>
        </mxCell>
        <mxCell id="54" value="" style="endArrow=none;html=1;rounded=0;entryX=-0.019;entryY=0.619;entryDx=0;entryDy=0;entryPerimeter=0;exitX=0.904;exitY=1.013;exitDx=0;exitDy=0;exitPerimeter=0;" parent="1" source="17" target="53" edge="1">
          <mxGeometry width="50" height="50" relative="1" as="geometry">
            <mxPoint x="507" y="-79" as="sourcePoint" />
            <mxPoint x="569" y="256" as="targetPoint" />
          </mxGeometry>
        </mxCell>
        <mxCell id="53" value="" style="whiteSpace=wrap;html=1;aspect=fixed;" parent="1" vertex="1">
          <mxGeometry x="500" y="-90" width="20" height="20" as="geometry" />
        </mxCell>
        <mxCell id="56" value="" style="whiteSpace=wrap;html=1;aspect=fixed;" parent="1" vertex="1">
          <mxGeometry x="755" y="-190" width="20" height="20" as="geometry" />
        </mxCell>
        <mxCell id="58" value="" style="endArrow=none;html=1;rounded=0;entryX=0.5;entryY=1;entryDx=0;entryDy=0;exitX=0.5;exitY=0;exitDx=0;exitDy=0;" parent="1" source="56" target="27" edge="1">
          <mxGeometry width="50" height="50" relative="1" as="geometry">
            <mxPoint x="528" y="-60" as="sourcePoint" />
            <mxPoint x="579" y="266" as="targetPoint" />
          </mxGeometry>
        </mxCell>
        <mxCell id="59" value="" style="endArrow=none;html=1;rounded=0;entryX=0.5;entryY=0;entryDx=0;entryDy=0;exitX=0.646;exitY=1.05;exitDx=0;exitDy=0;exitPerimeter=0;" parent="1" source="24" target="18" edge="1">
          <mxGeometry width="50" height="50" relative="1" as="geometry">
            <mxPoint x="775" y="-180" as="sourcePoint" />
            <mxPoint x="775" y="-250" as="targetPoint" />
          </mxGeometry>
        </mxCell>
        <mxCell id="60" value="" style="whiteSpace=wrap;html=1;aspect=fixed;" parent="1" vertex="1">
          <mxGeometry x="815" y="-160" width="20" height="20" as="geometry" />
        </mxCell>
        <mxCell id="61" value="" style="endArrow=none;html=1;rounded=0;entryX=0.268;entryY=1.001;entryDx=0;entryDy=0;exitX=1;exitY=0.5;exitDx=0;exitDy=0;entryPerimeter=0;" parent="1" source="60" target="10" edge="1">
          <mxGeometry width="50" height="50" relative="1" as="geometry">
            <mxPoint x="784" y="-128" as="sourcePoint" />
            <mxPoint x="785" y="-70" as="targetPoint" />
          </mxGeometry>
        </mxCell>
        <mxCell id="62" value="" style="endArrow=none;html=1;rounded=0;entryX=-0.008;entryY=0.869;entryDx=0;entryDy=0;entryPerimeter=0;exitX=1;exitY=0.5;exitDx=0;exitDy=0;" parent="1" source="63" target="8" edge="1">
          <mxGeometry width="50" height="50" relative="1" as="geometry">
            <mxPoint x="620" y="-100" as="sourcePoint" />
            <mxPoint x="671" y="226" as="targetPoint" />
          </mxGeometry>
        </mxCell>
        <mxCell id="64" value="" style="endArrow=none;html=1;rounded=0;entryX=-0.008;entryY=0.869;entryDx=0;entryDy=0;entryPerimeter=0;exitX=1;exitY=0.5;exitDx=0;exitDy=0;" parent="1" source="17" target="63" edge="1">
          <mxGeometry width="50" height="50" relative="1" as="geometry">
            <mxPoint x="530" y="-120" as="sourcePoint" />
            <mxPoint x="873" y="303" as="targetPoint" />
          </mxGeometry>
        </mxCell>
        <mxCell id="63" value="" style="whiteSpace=wrap;html=1;aspect=fixed;" parent="1" vertex="1">
          <mxGeometry x="520" y="-130" width="20" height="20" as="geometry" />
        </mxCell>
        <mxCell id="65" value="" style="ellipse;whiteSpace=wrap;html=1;aspect=fixed;" vertex="1" parent="1">
          <mxGeometry x="750" y="-360" width="30" height="30" as="geometry" />
        </mxCell>
        <mxCell id="66" value="UI" style="text;html=1;align=center;verticalAlign=middle;resizable=0;points=[];autosize=1;strokeColor=none;fillColor=none;" vertex="1" parent="1">
          <mxGeometry x="780" y="-370" width="40" height="30" as="geometry" />
        </mxCell>
        <mxCell id="67" value="" style="endArrow=none;html=1;rounded=0;exitX=0.633;exitY=0.99;exitDx=0;exitDy=0;exitPerimeter=0;" edge="1" parent="1" source="65" target="27">
          <mxGeometry width="50" height="50" relative="1" as="geometry">
            <mxPoint x="775" y="-180" as="sourcePoint" />
            <mxPoint x="775" y="-250" as="targetPoint" />
          </mxGeometry>
        </mxCell>
      </root>
    </mxGraphModel>
  </diagram>
</mxfile>
